<svg width="66" height="65" viewBox="0 0 66 65" fill="none" xmlns="http://www.w3.org/2000/svg">
<path d="M29.7633 3.76049C30.7535 3.25836 31.8674 2.99487 33 2.99487C34.1326 2.99487 35.2465 3.25836 36.2367 3.76049L61.2867 16.4656C61.806 16.7293 62.2387 17.1151 62.5399 17.5828C62.8412 18.0505 63 18.5833 63 19.126V44.1923C62.9997 45.2779 62.6816 46.3436 62.0785 47.2791C61.4754 48.2147 60.6093 48.9859 59.57 49.513L36.2367 61.3536C35.2465 61.8558 34.1326 62.1192 33 62.1192C31.8674 62.1192 30.7535 61.8558 29.7633 61.3536L6.43 49.513C5.39118 48.9862 4.52544 48.2154 3.92238 47.2805C3.31932 46.3455 3.00088 45.2804 3 44.1953V19.126C2.99998 18.5833 3.15881 18.0505 3.46005 17.5828C3.76129 17.1151 4.19399 16.7293 4.71333 16.4656L29.7633 3.76049Z" stroke="#754E29" stroke-width="4.16667" stroke-linecap="round" stroke-linejoin="round"/>
<path d="M3 17.3372L33 32.5565M33 32.5565L63 17.3372M33 32.5565V62.9953" stroke="#754E29" stroke-width="4.16667" stroke-linejoin="round"/>
<path d="M18 24.9462L48 9.72681M13 33.5543L23 38.6436" stroke="#754E29" stroke-width="4.16667" stroke-linecap="round" stroke-linejoin="round"/>
</svg>
