<svg width="60" height="61" viewBox="0 0 60 61" fill="none" xmlns="http://www.w3.org/2000/svg">
<path d="M30 0.503418C13.458 0.503418 0 13.9614 0 30.5034V42.9324C0 46.0044 2.691 48.5034 6 48.5034H9C9.79565 48.5034 10.5587 48.1874 11.1213 47.6247C11.6839 47.0621 12 46.2991 12 45.5034V30.0744C12 29.2788 11.6839 28.5157 11.1213 27.9531C10.5587 27.3905 9.79565 27.0744 9 27.0744H6.276C7.944 15.4644 17.934 6.50342 30 6.50342C42.066 6.50342 52.056 15.4644 53.724 27.0744H51C50.2043 27.0744 49.4413 27.3905 48.8787 27.9531C48.3161 28.5157 48 29.2788 48 30.0744V48.5034C48 51.8124 45.309 54.5034 42 54.5034H36V51.5034H24V60.5034H42C48.618 60.5034 54 55.1214 54 48.5034C57.309 48.5034 60 46.0044 60 42.9324V30.5034C60 13.9614 46.542 0.503418 30 0.503418Z" fill="#754E29"/>
</svg>
