<svg width="60" height="60" viewBox="0 0 60 60" fill="none" xmlns="http://www.w3.org/2000/svg">
<path d="M50.8861 16.487C50.8876 18.0071 50.6759 19.52 50.2572 20.9828H55.1787C57.843 20.9828 60 23.1108 60 25.7364V40.4646C60 44.126 58.9542 47.7133 56.9825 50.8152C55.0107 53.9171 52.1928 56.4081 48.852 58.0025C45.5111 59.5968 41.7824 60.2301 38.0934 59.8296C34.4044 59.4292 30.9045 58.0112 27.9949 55.7383L24.3949 59.287C24.1863 59.5078 23.9348 59.685 23.6553 59.8078C23.3758 59.9307 23.0741 59.9968 22.7682 60.0021C22.4622 60.0074 22.1583 59.9519 21.8746 59.8388C21.5909 59.7258 21.3332 59.5575 21.1168 59.344C20.9005 59.1306 20.7299 58.8763 20.6153 58.5964C20.5007 58.3165 20.4444 58.0167 20.4498 57.7149C20.4552 57.4131 20.5222 57.1154 20.6467 56.8397C20.7713 56.5639 20.9508 56.3158 21.1747 56.11L24.7716 52.5583C23.563 51.0548 22.5864 49.3833 21.8734 47.5979C19.2248 48.1313 16.489 48.0768 13.8644 47.4384C11.2397 46.8 8.79186 45.5936 6.6981 43.9066C4.60435 42.2197 2.91712 40.0944 1.75864 37.6847C0.600168 35.2751 -0.000551374 32.6414 3.7974e-07 29.9744V16.529C3.7974e-07 14.0233 2.05975 11.9912 4.59949 11.9912H18.0972C19.0902 8.5389 21.1976 5.50037 24.0996 3.33674C27.0016 1.1731 30.5398 0.00245071 34.1772 0.00244141H46.5114C48.9266 0.00244141 50.8861 1.93563 50.8861 4.3184V16.487ZM22.6997 12.5367C25.2213 13.1682 27.5771 14.3239 29.6094 15.9262C31.6417 17.5286 33.3037 19.5407 34.4841 21.828C36.3541 21.2661 38.2983 20.9812 40.2532 20.9828H45.4481C46.0318 19.554 46.3309 18.0275 46.3291 16.487V4.49824H34.1772C31.6553 4.49826 29.1959 5.27198 27.1395 6.71221C25.0831 8.15245 23.5315 10.1879 22.6997 12.5367ZM31.2456 52.5313C33.5079 54.1751 36.1881 55.1676 38.988 55.3985C41.7879 55.6293 44.5979 55.0895 47.1054 53.8391C49.613 52.5886 51.7199 50.6765 53.1918 48.3154C54.6637 45.9542 55.443 43.2366 55.443 40.4646V25.7364C55.443 25.7025 55.4363 25.669 55.4231 25.6377C55.41 25.6065 55.3908 25.578 55.3665 25.5541C55.3423 25.5302 55.3134 25.5112 55.2818 25.4982C55.2501 25.4853 55.2161 25.4786 55.1818 25.4786H40.2532C37.4435 25.4786 34.6889 26.2475 32.2956 27.6996C29.9023 29.1518 27.9642 31.2304 26.6967 33.7043C25.4292 36.1782 24.8821 38.9504 25.1161 41.7128C25.3501 44.4751 26.3561 47.1193 28.0223 49.3513L40.9215 36.6282C41.1301 36.4073 41.3817 36.2302 41.6611 36.1073C41.9406 35.9845 42.2424 35.9184 42.5483 35.9131C42.8542 35.9077 43.1581 35.9633 43.4418 36.0763C43.7255 36.1894 43.9832 36.3577 44.1996 36.5711C44.416 36.7846 44.5865 37.0388 44.7011 37.3187C44.8157 37.5986 44.872 37.8985 44.8666 38.2003C44.8612 38.5021 44.7942 38.7998 44.6697 39.0755C44.5452 39.3512 44.3656 39.5994 44.1418 39.8052L31.2456 52.5313ZM20.5063 40.4646C20.5063 38.6903 20.7494 36.9699 21.199 35.3364L12.8203 27.0671C12.5964 26.8613 12.4168 26.6132 12.2923 26.3374C12.1678 26.0617 12.1008 25.764 12.0954 25.4622C12.09 25.1604 12.1463 24.8606 12.2609 24.5807C12.3755 24.3008 12.5461 24.0465 12.7624 23.833C12.9788 23.6196 13.2365 23.4513 13.5202 23.3382C13.8039 23.2252 14.1078 23.1697 14.4137 23.175C14.7197 23.1803 15.0214 23.2464 15.3009 23.3692C15.5804 23.4921 15.8319 23.6692 16.0405 23.8901L23.0825 30.8346C24.8062 27.8522 27.2944 25.3694 30.2977 23.6353C29.1322 21.4759 27.3933 19.6698 25.2671 18.4106C23.141 17.1514 20.7077 16.4865 18.2278 16.487H4.5843L4.56911 16.499C4.56542 16.5036 4.56235 16.5086 4.56 16.514L4.55696 16.529V29.9744C4.55669 31.9529 4.99764 33.9073 5.84854 35.6989C6.69943 37.4904 7.93944 39.0754 9.48063 40.3413C11.0218 41.6073 12.8264 42.5232 14.7665 43.0241C16.7066 43.5251 18.7346 43.5988 20.7068 43.24C20.5736 42.3207 20.5066 41.3932 20.5063 40.4646Z" fill="#754E29"/>
</svg>
