<svg width="60" height="60" viewBox="0 0 60 60" fill="none" xmlns="http://www.w3.org/2000/svg">
<path d="M25.556 0.156821L25.5418 0.136809L25.5046 0.165398C11.1704 1.68918 0 13.8309 0 28.5913C0 35.201 2.24151 41.2876 6.00495 46.1306V46.1363H6.01066C8.38977 49.2049 11.3693 51.7552 14.7669 53.631C18.1644 55.5069 21.9086 56.6688 25.7702 57.0458C25.9044 55.685 26.2356 54.2612 26.7325 52.8232C20.5724 52.3652 14.8202 49.567 10.6536 45.0013C10.8106 44.3152 10.882 43.5175 10.9391 42.8257L10.9648 42.4883C11.0162 41.8594 11.0648 41.2533 11.1447 40.6415C11.3446 39.1349 11.6872 38.1285 12.2212 37.5596C12.9065 36.8249 13.6089 36.702 15.0795 36.4418L15.345 36.3932C16.0989 36.2617 17.1068 36.0587 18.0777 35.5298C19.1142 34.9637 19.9908 34.1004 20.6504 32.8282C21.3157 31.5474 21.2672 30.2266 21.0844 29.1831C20.9182 28.3475 20.6989 27.5234 20.4277 26.7159C20.3835 26.575 20.3397 26.4339 20.2963 26.2928C19.711 24.383 19.6396 23.4539 20.1222 22.7191C20.6476 21.9187 21.3671 21.7357 23.2403 21.2497L23.483 21.1896C25.3847 20.6979 27.9603 19.8746 29.4508 16.6926C31.067 13.2477 30.1561 9.36243 29.1653 6.72654C28.8528 5.89848 28.4973 5.08735 28.1002 4.29649C28.2516 4.29077 28.4029 4.29077 28.5542 4.29077C33.1381 4.28376 37.6295 5.58271 41.5036 8.03591C40.9553 8.76493 40.2215 9.72551 39.402 10.7519C37.6031 13.0018 35.5757 15.3175 34.1937 16.3553C33.5573 16.8208 33.0741 17.4658 32.806 18.2078C32.5752 18.8823 32.5211 19.6048 32.6489 20.3062C32.8488 21.4955 33.4798 22.6105 34.0395 23.4625C34.5049 24.1743 35.0532 24.8919 35.5129 25.498L35.827 25.9068C36.0925 26.2642 36.3124 26.5586 36.4752 26.8131C36.558 26.936 36.6179 27.0361 36.6579 27.1104C36.6979 27.1819 36.7122 27.219 36.715 27.2219C36.8292 27.5364 36.952 28.051 37.0948 28.7657L37.1576 29.0687C38.4254 28.5027 39.7989 28.0681 41.2694 27.7965C41.1401 27.0984 40.9607 26.4105 40.7326 25.7381C40.4185 24.889 39.7361 23.9771 39.2449 23.3252C39.1216 23.1629 38.9979 23.0009 38.8737 22.8392C38.4359 22.2775 38.0178 21.7006 37.6202 21.1096C37.1776 20.4349 36.9634 19.9689 36.8921 19.6859C38.7481 18.2507 41.0267 15.5805 42.7457 13.4335C43.5909 12.3757 44.3447 11.3894 44.9072 10.6346C49.6169 14.9254 52.4483 20.9013 52.7882 27.2676C54.4443 27.3991 55.8721 27.6164 57.0999 27.8709C56.7173 12.4157 44.0849 0.00244141 28.5542 0.00244141C27.5434 0.00244141 26.5412 0.0539011 25.556 0.156821ZM6.95581 39.6866C5.25408 36.3644 4.33953 32.6945 4.28309 28.9613C4.22666 25.2281 5.02986 21.5321 6.63039 18.1598C8.23093 14.7876 10.5858 11.8298 13.5123 9.51589C16.4389 7.20193 19.8584 5.594 23.5058 4.8168C24.1554 5.90614 24.7086 7.05023 25.1591 8.23603C26.0557 10.6232 26.4155 13.0704 25.576 14.8686C24.9336 16.2352 24.0198 16.6211 22.4122 17.0357L21.9496 17.15C20.4306 17.5188 18.0349 18.0963 16.5443 20.3606C14.8282 22.9679 15.6734 25.8239 16.2017 27.5507L16.373 28.0996C16.6014 28.8286 16.7728 29.3861 16.8641 29.9178C16.9726 30.5382 16.8927 30.764 16.8527 30.847C16.5672 31.3987 16.2816 31.6246 16.0303 31.7618C15.7162 31.9333 15.3051 32.0477 14.5969 32.1706C14.4827 32.1935 14.3571 32.2135 14.2257 32.2335C12.9037 32.4508 10.8021 32.7967 9.09167 34.635C7.70393 36.1216 7.19852 38.0942 6.95581 39.6866ZM28.5742 57.7662C28.7455 55.0074 29.9877 51.6425 32.095 48.472C32.7774 47.3113 33.6198 46.1363 34.6249 44.9899C38.0127 41.1309 42.4885 38.3899 47.4628 37.1279C47.8305 37.0358 48.1466 36.8012 48.3415 36.4758C48.5364 36.1503 48.5942 35.7607 48.5022 35.3926C48.4102 35.0245 48.1759 34.708 47.8509 34.5129C47.5258 34.3177 47.1366 34.2598 46.769 34.3519C41.2312 35.7556 36.2484 38.8067 32.4776 43.103C31.7152 43.975 31.0213 44.8812 30.4045 45.7989C30.1234 44.8535 29.9811 43.8722 29.9819 42.8857C29.9819 40.2641 31.3154 37.4167 33.4284 35.1582C35.8382 32.5913 39.0623 30.9404 42.5515 30.4867C50.5467 29.4289 55.5094 30.3152 58.4362 31.1357C58.8315 31.2466 59.1867 31.4689 59.4593 31.7762C59.732 32.0834 59.9108 32.4627 59.9742 32.8688C60.0377 33.2748 59.9833 33.6906 59.8174 34.0666C59.6516 34.4426 59.3813 34.7629 59.0387 34.9895C58.876 35.0981 58.6133 35.3611 58.2963 35.9615C57.9219 36.7187 57.6161 37.5081 57.3826 38.3201C57.1342 39.132 56.8972 40.0097 56.6402 40.9645L56.4746 41.5706C56.1576 42.7428 55.8064 44.0007 55.3838 45.2472C54.55 47.7115 53.3736 50.3417 51.3948 52.3601C49.3417 54.4556 46.5548 55.7621 42.8313 55.7621C39.0365 55.7621 36.3867 54.2212 34.6934 52.4487C33.5398 54.5643 32.9402 56.5569 32.8488 58.0264C32.8048 58.5867 32.5428 59.1073 32.1192 59.4762C31.6955 59.845 31.1442 60.0326 30.5839 59.9985C30.0235 59.9644 29.4989 59.7113 29.1231 59.2938C28.7472 58.8763 28.5501 58.3278 28.5742 57.7662Z" fill="#754E29"/>
</svg>
